<svg xmlns="http://www.w3.org/2000/svg" width="200" height="200" viewBox="0 0 200 200"><g fill="none" fill-rule="evenodd"><rect width="198.936" height="198.936" fill="#0A2CD9"/><path fill="#FFF" fill-rule="nonzero" d="M26.5633554,118.958453 L38.7199684,83.3058654 L28.9640311,83.3058654 L20.9958309,111.296722 L20.8936745,111.296722 L12.9765526,83.3058654 L2.86306786,83.3058654 L14.815368,118.958453 L26.5633554,118.958453 Z M55.3902818,118.958453 C67.5468948,118.958453 76.4855808,114.310336 76.4855808,100.978925 C76.4855808,87.1878091 67.8022858,83.3058654 55.3902818,83.3058654 L42.4164175,83.3058654 L42.4164175,118.958453 L55.3902818,118.958453 Z M55.5945946,111.909661 L51.9169638,111.909661 L51.9169638,90.3546578 L55.5945946,90.3546578 C62.5412306,90.3546578 66.6785653,94.0322887 66.6785653,101.132159 C66.6785653,108.23203 62.6944652,111.909661 55.5945946,111.909661 Z M91.9810955,118.958453 L91.9810955,83.3058654 L82.4805492,83.3058654 L82.4805492,118.958453 L91.9810955,118.958453 Z M111.920414,118.958453 C124.077027,118.958453 133.015713,114.310336 133.015713,100.978925 C133.015713,87.1878091 124.332418,83.3058654 111.920414,83.3058654 L98.9465497,83.3058654 L98.9465497,118.958453 L111.920414,118.958453 Z M112.124727,111.909661 L108.447096,111.909661 L108.447096,90.3546578 L112.124727,90.3546578 C119.071363,90.3546578 123.208698,94.0322887 123.208698,101.132159 C123.208698,108.23203 119.224597,111.909661 112.124727,111.909661 Z" transform="rotate(-90 67.94 101.132)"/></g></svg>